<svg xmlns="http://www.w3.org/2000/svg" width="640" height="360" viewBox="0 0 640 360">
  <rect width="100%" height="100%" fill="#ffffff" />
  <line x1="56" y1="304" x2="584" y2="304" stroke="#111827" stroke-width="2" />
  <line x1="56" y1="56" x2="56" y2="304" stroke="#111827" stroke-width="2" />
  <text x="320.0" y="28" text-anchor="middle" font-family="Arial, sans-serif" font-size="20" fill="#111827">Training loss</text>
  <text x="320.0" y="344" text-anchor="middle" font-family="Arial, sans-serif" font-size="14" fill="#374151">Epoch</text>
  <text x="18" y="180.0" text-anchor="middle" transform="rotate(-90 18 180.0)" font-family="Arial, sans-serif" font-size="14" fill="#374151">Loss</text>
  <polyline points="56.0,56.0 131.4,140.7 206.9,198.1 282.3,237.5 357.7,264.7 433.1,282.8 508.6,294.9 584.0,304.0" fill="none" stroke="#2563eb" stroke-width="4" stroke-linecap="round" stroke-linejoin="round" />
  <circle cx="56.0" cy="56.0" r="5" fill="#2563eb" />
<circle cx="131.4" cy="140.7" r="5" fill="#2563eb" />
<circle cx="206.9" cy="198.1" r="5" fill="#2563eb" />
<circle cx="282.3" cy="237.5" r="5" fill="#2563eb" />
<circle cx="357.7" cy="264.7" r="5" fill="#2563eb" />
<circle cx="433.1" cy="282.8" r="5" fill="#2563eb" />
<circle cx="508.6" cy="294.9" r="5" fill="#2563eb" />
<circle cx="584.0" cy="304.0" r="5" fill="#2563eb" />
</svg>
